<svg xmlns="http://www.w3.org/2000/svg" viewBox="0 0 265.7 270">
  <defs>
    <style>
      .cls-1 {
        fill: #003a93;
      }
    </style>
  </defs>
  <g id="레이어_2" data-name="레이어 2">
    <g id="레이어_1-2" data-name="레이어 1">
      <path class="cls-1" d="M132.9,0C59.5,0,0,60.4,0,135S59.5,270,132.9,270s132.8-60.4,132.8-135S206.2,0,132.9,0ZM122.5,49.9s31.2-6.2,31.9,28.7a30.8,30.8,0,0,1-.4,5.3H111.8Zm90.1,95c-4,19-17.3,56.3-59.7,56.3H93.5a9.6,9.6,0,0,1-5-1.3,15.8,15.8,0,0,1-7.8-15.5l.8-4.7L94.1,140h41.1l-7,20.6-.3,1.1a6.9,6.9,0,0,0,5.7,7.9,36.4,36.4,0,0,0,8.1.6,33.3,33.3,0,0,0,32.8-22.3s8.6-19.1-6.1-19.1H38.4L64.5,97a5,5,0,0,1,4-1.9H190.8s17.9-.3,22.4,26.1A63,63,0,0,1,212.6,144.9Z"/>
    </g>
  </g>
</svg>
