<svg xmlns="http://www.w3.org/2000/svg" viewBox="0 0 1150.4 270">
  <defs>
    <style>
      .cls-1 {
        fill: #fff;
      }
    </style>
  </defs>
  <g id="레이어_2" data-name="레이어 2">
    <g id="레이어_1-2" data-name="레이어 1">
      <g>
        <path class="cls-1" d="M132.9,0C59.5,0,0,60.4,0,135S59.5,270,132.9,270s132.8-60.4,132.8-135S206.2,0,132.9,0ZM122.5,49.9s31.2-6.2,31.9,28.7a30.8,30.8,0,0,1-.4,5.3H111.8Zm90.1,95c-4,19-17.3,56.3-59.7,56.3H93.5a9.6,9.6,0,0,1-5-1.3,15.8,15.8,0,0,1-7.8-15.5l.8-4.7L94.1,140h41.1l-7,20.6-.3,1.1a6.9,6.9,0,0,0,5.7,7.9,36.4,36.4,0,0,0,8.1.6,33.3,33.3,0,0,0,32.8-22.3s8.6-19.1-6.1-19.1H38.4L64.5,97a5,5,0,0,1,4-1.9H190.8s17.9-.3,22.4,26.1A63,63,0,0,1,212.6,144.9Z"/>
        <path class="cls-1" d="M349.4,76.4h46V87.7H362.6v41.1h7.9c5,0,10.3-.2,16-.6s11-.8,16-1.5l1.4,11.2-8,1.1c-2.9.2-6,.5-9.2.6l-9.6.4H349.4ZM424.2,165H411V68.1h13.2Z"/>
        <path class="cls-1" d="M457.8,76.5h51.6V87.7H490.7V98.8a43.9,43.9,0,0,0,.3,5.4,23.1,23.1,0,0,0,1.1,4.7,21.9,21.9,0,0,0,2.2,4.3,31.2,31.2,0,0,0,3.9,4.7q3.3,3.8,7.2,7.5c2.6,2.6,5.3,5.1,7.9,7.4l-8.4,8.8-6.7-6.4-6.3-6.3c-2-2-3.7-3.9-5.1-5.5a18.3,18.3,0,0,1-2.6-3.7H484a24.7,24.7,0,0,1-3,4.2c-1.5,1.8-3.2,3.6-4.9,5.4l-6,6.2c-2.1,2.1-4.6,4.5-7.5,7.1l-8.7-8.8a201.6,201.6,0,0,0,15.4-15.1,59.4,59.4,0,0,0,3.9-4.8,25.3,25.3,0,0,0,2.5-4.5,19.6,19.6,0,0,0,1.3-4.9,47.8,47.8,0,0,0,.4-5.7V87.7H457.8ZM534.6,165H521.4V68.1h13.2Z"/>
        <path class="cls-1" d="M612.6,71.2V81.6H580.4v6.5h30.1V98.6H580.4v6.6l19.9-.2q9.3-.3,18.9-1.2l1.2,10.3-9.7.8-11.5.5-14.1.2H567.5V71.2Zm31.3,50.4v27.1h-48v6.9h50.9V166H583.2V138.8h48v-6.9H582.6V121.6Zm0-4.4H630.8V97.5H615.7V87h15.1V68.1h13.1Z"/>
        <rect class="cls-1" x="684.7" y="110" width="13.2" height="13.54"/>
        <path class="cls-1" d="M819.2,122.6v10.6H782.8v12H769.7v-12H730.4V122.6ZM781.4,75h28.7V85.5H739.5V75h28.6V66h13.3Zm-25.3,78.4h52.5v10.8H742.9V139.1h13.2Zm18.7-34.5a75,75,0,0,1-12.2-.9,38.5,38.5,0,0,1-9.3-2.6,16.7,16.7,0,0,1-5.9-4.1,8.9,8.9,0,0,1-2.1-5.9v-3.3a8.8,8.8,0,0,1,2.1-5.8,15.7,15.7,0,0,1,5.9-4.2,38.5,38.5,0,0,1,9.3-2.6,93.4,93.4,0,0,1,24.4,0,38.5,38.5,0,0,1,9.3,2.6,15.7,15.7,0,0,1,5.9,4.2,8.8,8.8,0,0,1,2.1,5.8v3.3a8.9,8.9,0,0,1-2.1,5.9,16.7,16.7,0,0,1-5.9,4.1A38.5,38.5,0,0,1,787,118a75,75,0,0,1-12.2.9m0-20.2c-5.6,0-9.7.4-12.4,1.3s-4.1,2-4.1,3.3v.9c0,1.3,1.4,2.4,4.1,3.3s6.8,1.4,12.4,1.4,9.7-.5,12.4-1.4,4.1-2,4.1-3.3v-.9c0-1.3-1.4-2.4-4.1-3.3s-6.8-1.3-12.4-1.3"/>
        <path class="cls-1" d="M891.8,121.3H846V73.9h45.8ZM878.7,84.9H859.1v25.3h19.6Zm-5.8,67.8h50V164H859.7V131.5h13.2Zm48.4-15.6H908.2v-69h13.1Z"/>
        <path class="cls-1" d="M955.8,74h50V85.1h-18v6.4c0,1.2.1,2.4.2,3.4a9.8,9.8,0,0,0,1.1,3,11.2,11.2,0,0,0,2.1,2.9,27.5,27.5,0,0,0,3.4,3l7,5.1,7.7,5.1-6.9,9.2c-4.7-3-9-6-12.8-8.8s-4-3-5.4-4.1a7.1,7.1,0,0,1-2.2-2.5h-.2c-.2.7-1,1.6-2.4,3a46.7,46.7,0,0,1-5.7,4.8l-6.8,5.4c-2.3,1.8-4.8,3.6-7.4,5.4l-7.8-9.6c3.4-2.2,6.5-4.5,9.5-6.8s5.5-4.4,7.7-6.3a17.9,17.9,0,0,0,4.2-5.4,13.9,13.9,0,0,0,1.6-6.8V85.1H955.8Zm45.8,93.9a55.1,55.1,0,0,1-11.9-1.2,34.9,34.9,0,0,1-9.6-3.7,19,19,0,0,1-6.4-5.8,13.3,13.3,0,0,1-2.4-7.8v-4.6a13.3,13.3,0,0,1,2.4-7.8,19,19,0,0,1,6.4-5.8,32,32,0,0,1,9.6-3.7,55.1,55.1,0,0,1,11.9-1.2,56.8,56.8,0,0,1,12,1.2,32,32,0,0,1,9.6,3.7,20,20,0,0,1,6.4,5.8,13.3,13.3,0,0,1,2.3,7.8v4.6a13.3,13.3,0,0,1-2.3,7.8,20,20,0,0,1-6.4,5.8,34.9,34.9,0,0,1-9.6,3.7,56.8,56.8,0,0,1-12,1.2m0-30.9a27.6,27.6,0,0,0-6.5.7,20.9,20.9,0,0,0-5.5,1.8,13.2,13.2,0,0,0-3.9,2.9,4.8,4.8,0,0,0-1.5,3.4v2.5a5,5,0,0,0,1.5,3.5,13,13,0,0,0,3.9,2.8,20.9,20.9,0,0,0,5.5,1.9,27.6,27.6,0,0,0,6.5.7,28.4,28.4,0,0,0,6.6-.7,20.9,20.9,0,0,0,5.5-1.9,13,13,0,0,0,3.9-2.8,5.4,5.4,0,0,0,1.4-3.5v-2.5a5.1,5.1,0,0,0-1.4-3.4,13.2,13.2,0,0,0-3.9-2.9,20.9,20.9,0,0,0-5.5-1.8,28.4,28.4,0,0,0-6.6-.7m16.9-33.9H1003V92h15.5V68.1h13.1v57.6h-13.1Z"/>
        <path class="cls-1" d="M1150.4,124.1h-88.8V113.4h88.8Zm-76.4,7h64V165h-64Zm32-23.2a63.3,63.3,0,0,1-12.8-1.2,34.2,34.2,0,0,1-10.1-3.5,18,18,0,0,1-6.5-5.6,13.3,13.3,0,0,1-2.4-7.8V87.3a13.3,13.3,0,0,1,2.4-7.8,18,18,0,0,1,6.5-5.6,34.2,34.2,0,0,1,10.1-3.5,63.3,63.3,0,0,1,12.8-1.2,64,64,0,0,1,12.8,1.2,35.3,35.3,0,0,1,10.1,3.5,18.9,18.9,0,0,1,6.5,5.6,13.3,13.3,0,0,1,2.4,7.8v2.5a13.3,13.3,0,0,1-2.4,7.8,18.9,18.9,0,0,1-6.5,5.6,35.3,35.3,0,0,1-10.1,3.5,64,64,0,0,1-12.8,1.2m-19,46.6h37.9V141.6H1087Zm19-74.8a42.7,42.7,0,0,0-7.4.6,26.3,26.3,0,0,0-5.9,1.6,13.8,13.8,0,0,0-4,2.6,4.4,4.4,0,0,0-1.5,3.2v1.7a4.4,4.4,0,0,0,1.5,3.2,13.8,13.8,0,0,0,4,2.6,21.9,21.9,0,0,0,5.9,1.6,42.7,42.7,0,0,0,7.4.6,43.5,43.5,0,0,0,7.4-.6,21.9,21.9,0,0,0,5.9-1.6,13.8,13.8,0,0,0,4-2.6,4.7,4.7,0,0,0,1.4-3.2V87.7a4.7,4.7,0,0,0-1.4-3.2,13.8,13.8,0,0,0-4-2.6,26.3,26.3,0,0,0-5.9-1.6,43.5,43.5,0,0,0-7.4-.6"/>
        <path class="cls-1" d="M382.5,209.6h-8.1v5.6c0,.7.1,1.4.1,1.9l.3,1.6a6.1,6.1,0,0,0,.7,1.4,13.6,13.6,0,0,0,1.2,1.7,38.9,38.9,0,0,0,2.9,3l3.9,3.6-1.8,1.8a38.9,38.9,0,0,1-3.5-3.3l-2.7-2.7c-.5-.6-1.1-1.2-1.5-1.8a3.6,3.6,0,0,1-.9-1.2h0l-.4.7-.7,1-.9,1-.9,1-1,1.1-1.5,1.5-1.7,1.7-1.8,1.6-1.8-1.8,3.5-3.3,2.9-3.1a7.7,7.7,0,0,0,1.5-1.9,7,7,0,0,0,.9-1.7,9.4,9.4,0,0,0,.4-1.6c0-.6.1-1.3.1-2v-5.8h-8.2v-2.4h19Zm7.6,7.9H396v2.4h-5.9v19.6h-2.8V203.8h2.8Z"/>
        <path class="cls-1" d="M454.4,221.5V217H444.3V205.3h22.8v2.3H447v7h20.3V217H457.1v4.5h15.1v2.3H439.3v-2.3Zm1.3,5.1a27.2,27.2,0,0,1,4.2.4,15.2,15.2,0,0,1,3.6,1.2,8,8,0,0,1,2.4,2,4.4,4.4,0,0,1,.9,2.7v1.3a4.4,4.4,0,0,1-.9,2.7,6.8,6.8,0,0,1-2.4,2,15.2,15.2,0,0,1-3.6,1.2,21.7,21.7,0,0,1-8.3,0,15.2,15.2,0,0,1-3.6-1.2,6.8,6.8,0,0,1-2.4-2,4.4,4.4,0,0,1-.9-2.7v-1.3a4.2,4.2,0,0,1,.9-2.7,6.8,6.8,0,0,1,2.4-2,15.2,15.2,0,0,1,3.6-1.2,27.1,27.1,0,0,1,4.1-.4m0,11.5,3.1-.2,2.8-.8a9.1,9.1,0,0,0,1.9-1.3,2.8,2.8,0,0,0,.7-1.7v-1a2.9,2.9,0,0,0-.7-1.8,9.1,9.1,0,0,0-1.9-1.3,11.5,11.5,0,0,0-2.8-.7,15.5,15.5,0,0,0-3.1-.3,16.3,16.3,0,0,0-3.1.3,10.7,10.7,0,0,0-2.7.7,9.1,9.1,0,0,0-1.9,1.3,2.9,2.9,0,0,0-.7,1.8v1a2.8,2.8,0,0,0,.7,1.7,9.1,9.1,0,0,0,1.9,1.3l2.7.8,3.1.2"/>
        <path class="cls-1" d="M539.5,231.8l-4.6.5-4.9.2-5.8.2h-7.8v-2.4h10v-4.4a9.4,9.4,0,0,1-3-.7,8.6,8.6,0,0,1-2.3-1.3,9,9,0,0,1-1.5-1.9,4.6,4.6,0,0,1-.5-2v-1.5a4.6,4.6,0,0,1,.6-2.3,5.4,5.4,0,0,1,1.8-1.9,6.8,6.8,0,0,1,2.7-1.3,11.6,11.6,0,0,1,3.4-.5,12.1,12.1,0,0,1,3.4.5,8.4,8.4,0,0,1,2.7,1.3,6.1,6.1,0,0,1,1.7,1.9,4.6,4.6,0,0,1,.6,2.3v1.5a4.8,4.8,0,0,1-.4,2,7.5,7.5,0,0,1-1.4,1.7A10.2,10.2,0,0,1,532,225a12.9,12.9,0,0,1-2.8.8v4.4l5.3-.3,4.8-.4ZM528.9,208h8.7v2.4H517.1V208h9.1v-4.5h2.7Zm-1.3,6.7a6.1,6.1,0,0,0-2.4.4l-1.9.8a4.9,4.9,0,0,0-1.2,1.3,3.3,3.3,0,0,0-.4,1.4v1.1a4.3,4.3,0,0,0,.4,1.4,4.6,4.6,0,0,0,1.2,1.2,5.6,5.6,0,0,0,1.9.9,9.8,9.8,0,0,0,4.8,0,5.1,5.1,0,0,0,1.8-.9,4.6,4.6,0,0,0,1.2-1.2,2.7,2.7,0,0,0,.4-1.4v-1.1a2.3,2.3,0,0,0-.4-1.4,4.9,4.9,0,0,0-1.2-1.3,7.5,7.5,0,0,0-1.8-.8,6.1,6.1,0,0,0-2.4-.4m17.2,3.9h5.6V221h-5.6v18.5H542V203.8h2.8Z"/>
        <path class="cls-1" d="M595.1,229.2c3-1.7,5.3-3.2,7.1-4.4a21.1,21.1,0,0,0,4-3.5A9,9,0,0,0,608,218a14.8,14.8,0,0,0,.4-3.8v-4.5H595.5v-2.5h15.6v7a32.5,32.5,0,0,1-.2,3.3,13.4,13.4,0,0,1-.7,2.7,9.6,9.6,0,0,1-1.6,2.5,16.6,16.6,0,0,1-2.7,2.5,36,36,0,0,1-3.9,2.9l-5.5,3.3Zm27.5,10.3h-2.8V203.8h2.8Z"/>
        <path class="cls-1" d="M672,229.2c3-1.7,5.4-3.2,7.1-4.4a22.2,22.2,0,0,0,4.1-3.5,7.5,7.5,0,0,0,1.7-3.3,14.6,14.6,0,0,0,.5-3.8v-4.5h-13v-2.5h15.7v7a32.5,32.5,0,0,1-.2,3.3,13.8,13.8,0,0,1-.8,2.7,9.6,9.6,0,0,1-1.6,2.5,15.6,15.6,0,0,1-2.6,2.5,38.1,38.1,0,0,1-4,2.9c-1.5,1-3.3,2.1-5.5,3.3Zm27.5,10.3h-2.7V203.8h2.7Z"/>
        <path class="cls-1" d="M801.3,229.1c2-1.1,3.7-2.2,5.1-3.1a24.5,24.5,0,0,0,3.6-2.5,17.9,17.9,0,0,0,2.4-2.3,8.5,8.5,0,0,0,1.4-2.1,8.6,8.6,0,0,0,.6-2.3,21.1,21.1,0,0,0,.2-2.6v-4.5H801.7v-2.5h15.5v7a20.7,20.7,0,0,1-.4,4.6,9.6,9.6,0,0,1-2.1,3.8,18.6,18.6,0,0,1-4.3,3.9c-2,1.4-4.5,3-7.7,4.8Zm26.5-11.6h5.9v2.4h-5.9v19.6H825V203.8h2.8Z"/>
        <path class="cls-1" d="M887.5,215.6c0,.3-.4.8-.9,1.4l-2.1,2.1-2.6,2.3-3.3,2.7-1.7-2,3.3-2.6,3.1-2.8a9.4,9.4,0,0,0,1.4-1.6,5,5,0,0,0,.8-1.4,3.7,3.7,0,0,0,.4-1.5,10.3,10.3,0,0,0,.1-1.9v-4.9h2.8v4.8a10.3,10.3,0,0,0,.1,1.9,5.8,5.8,0,0,0,.3,1.4,5.5,5.5,0,0,0,.9,1.4l1.5,1.5,3,2.5,2.8,2.1-1.7,1.9-2.8-2.2-2.3-1.9c-1.9-1.6-2.9-2.6-3.1-3.2Zm7.1,10a17.7,17.7,0,0,1,4.1.5,13.4,13.4,0,0,1,3.4,1.3,7.8,7.8,0,0,1,2.3,2.1,4.8,4.8,0,0,1,.8,2.8v1.5a4.8,4.8,0,0,1-.8,2.8,7.8,7.8,0,0,1-2.3,2.1,10.5,10.5,0,0,1-3.4,1.3,17.7,17.7,0,0,1-4.1.5,18.4,18.4,0,0,1-4.1-.5,11.5,11.5,0,0,1-3.4-1.3,9.3,9.3,0,0,1-2.3-2.1,5.7,5.7,0,0,1-.8-2.8v-1.5a5.4,5.4,0,0,1,.8-2.8,9.3,9.3,0,0,1,2.3-2.1,11.5,11.5,0,0,1,3.4-1.3,18.4,18.4,0,0,1,4.1-.5m0,12.5a13.9,13.9,0,0,0,3-.3,10,10,0,0,0,2.6-.9,4.5,4.5,0,0,0,1.7-1.3,2.8,2.8,0,0,0,.7-1.9v-1.3a2.4,2.4,0,0,0-.7-1.8,3.9,3.9,0,0,0-1.7-1.4,10,10,0,0,0-2.6-.9,13.9,13.9,0,0,0-3-.3,15.3,15.3,0,0,0-3,.3,8.1,8.1,0,0,0-2.5.9,4.2,4.2,0,0,0-1.8,1.4,2.9,2.9,0,0,0-.7,1.8v1.3a3.4,3.4,0,0,0,.7,1.9,4.9,4.9,0,0,0,1.8,1.3,8.1,8.1,0,0,0,2.5.9l3,.3M905,212.9h5.5v2.4H905v9.6h-2.7V203.8H905Z"/>
        <path class="cls-1" d="M954.8,209.5h7v-4.9h2.7v4.9h6.6v2.4h-6.6v3.5a15.5,15.5,0,0,0,.1,2.3q.1,1.1.3,1.8a4.8,4.8,0,0,0,.8,1.6,13.6,13.6,0,0,0,1.2,1.7l2.3,2.7,3,3.2-1.8,1.7-1.3-1.3-1.4-1.6-1.3-1.4-1.1-1.2a18.2,18.2,0,0,1-1.4-1.9,5.8,5.8,0,0,1-.7-1.1h0l-.6,1.1a15,15,0,0,1-1.4,1.8c-.7.8-1.5,1.8-2.5,2.8s-1.9,2.1-3.2,3.3l-1.8-1.8,1.7-1.7,1.6-1.7,1.4-1.5,1.1-1.3a12,12,0,0,0,1.1-1.7,5.1,5.1,0,0,0,.7-1.7,8,8,0,0,0,.4-1.8c0-.7.1-1.4.1-2.3v-3.5h-7Zm20.4,7.5V204.6H978v33.2h-2.8V219.5H969V217Zm9.7,22.5h-2.8V203.8h2.8Z"/>
        <path class="cls-1" d="M1043,207.9h9.2v2.3h-20.7v-2.3h8.8v-4.5h2.7Zm-1.3,4.1a13,13,0,0,1,3.6.5,11.7,11.7,0,0,1,2.5,1.3,7,7,0,0,1,1.6,1.9,5.4,5.4,0,0,1,.5,2.1V219a5.4,5.4,0,0,1-.5,2.1,7,7,0,0,1-1.6,1.9,8.4,8.4,0,0,1-2.5,1.3,13.2,13.2,0,0,1-7.2,0,8.4,8.4,0,0,1-2.5-1.3,7,7,0,0,1-1.6-1.9,5.4,5.4,0,0,1-.5-2.1v-1.2a5.4,5.4,0,0,1,.5-2.1,7,7,0,0,1,1.6-1.9,11.7,11.7,0,0,1,2.5-1.3,13,13,0,0,1,3.6-.5m0,10.5a8.8,8.8,0,0,0,2.4-.3,5.1,5.1,0,0,0,1.8-.9,2.8,2.8,0,0,0,1.3-2.4v-1a2.7,2.7,0,0,0-.3-1.2,2.9,2.9,0,0,0-1-1.2,4.9,4.9,0,0,0-1.8-.8,6.1,6.1,0,0,0-2.4-.4,5.7,5.7,0,0,0-2.4.4,4.9,4.9,0,0,0-1.8.8,2.8,2.8,0,0,0-1.3,2.4v1a2.8,2.8,0,0,0,1.3,2.4,5.1,5.1,0,0,0,1.8.9,8.3,8.3,0,0,0,2.4.3m-2.9,5h21.9v12h-21.9Zm2.7,9.5h16.6v-7.1h-16.6Zm16.4-21.8V203.8h2.8v21.6h-2.8v-7.8h-6v-2.4Z"/>
        <path class="cls-1" d="M1109.8,229.2c3-1.7,5.4-3.2,7.2-4.4a24.8,24.8,0,0,0,4-3.5,9,9,0,0,0,1.8-3.3,21.1,21.1,0,0,0,.4-3.8v-4.5h-13v-2.5h15.7v7a32.5,32.5,0,0,1-.2,3.3,13.8,13.8,0,0,1-.8,2.7,9.6,9.6,0,0,1-1.6,2.5,15.6,15.6,0,0,1-2.6,2.5,38.1,38.1,0,0,1-4,2.9l-5.4,3.3Zm27.5,10.3h-2.7V203.8h2.7Z"/>
      </g>
    </g>
  </g>
</svg>
