<svg xmlns="http://www.w3.org/2000/svg" width="570.804" height="404.941" viewBox="0 0 570.804 404.941">
  <defs>
    <style>
      .cls-1, .cls-2 {
        fill: none;
        stroke: #fff;
      }

      .cls-1 {
        stroke-width: 2px;
      }
    </style>
  </defs>
  <g id="그룹_1" data-name="그룹 1" transform="translate(-2953.5 -311)">
    <path id="패스_28" data-name="패스 28" class="cls-1" d="M285.15,0C210.6,0,150.172,61.406,150.172,137.155S210.6,274.31,285.15,274.31,420.128,212.9,420.128,137.155,359.7,0,285.15,0ZM274.613,50.73s31.676-6.344,32.43,29.173a25.111,25.111,0,0,1-.436,5.32H263.728Zm91.528,96.518c-4.062,19.258-17.512,57.183-60.666,57.183H245.127a10.329,10.329,0,0,1-5.073-1.306,16.064,16.064,0,0,1-7.872-15.8l.823-4.794,12.727-40.319h41.826l-7.137,20.991a6.995,6.995,0,0,0,5.434,9.144,49.931,49.931,0,0,0,8.273.6A33.922,33.922,0,0,0,327.442,150.3s8.73-19.485-6.17-19.485H189.193l26.469-32.273a5.282,5.282,0,0,1,4.067-1.92H344.057s18.187-.3,22.733,26.469A64.727,64.727,0,0,1,366.141,147.248Z" transform="translate(2954 312)"/>
    <path id="패스_30" data-name="패스 30" class="cls-2" d="M0,338.261H32.777v8.083H9.418v29.215h5.635q5.343,0,11.419-.371t11.347-1.112l1.04,8.009q-2.6.444-5.711.742t-6.527.483q-3.406.182-6.892.257t-6.9.075H0Zm53.315,63.1H43.9V332.4h9.414Z" transform="translate(2954 312)"/>
    <path id="패스_31" data-name="패스 31" class="cls-2" d="M77.193,338.335h36.783v8.009H100.624V354.2a30.567,30.567,0,0,0,.227,3.893,15.417,15.417,0,0,0,.778,3.3,14.289,14.289,0,0,0,1.594,3.113,24.767,24.767,0,0,0,2.742,3.336q2.37,2.6,5.154,5.341t5.6,5.264l-6.006,6.229q-2.376-2.226-4.747-4.559t-4.448-4.488q-2.154-2.149-3.635-3.892a11.892,11.892,0,0,1-1.852-2.632h-.149a17.412,17.412,0,0,1-2.149,2.964c-1.092,1.289-2.249,2.572-3.485,3.857q-2.079,2.151-4.305,4.413c-1.479,1.506-3.264,3.2-5.335,5.077l-6.156-6.3a152.116,152.116,0,0,0,10.975-10.752,43.507,43.507,0,0,0,2.742-3.41,15.649,15.649,0,0,0,1.78-3.19,14.553,14.553,0,0,0,.928-3.447,29.479,29.479,0,0,0,.258-4.116v-7.859H77.193Zm54.724,63.03H122.5V332.4h9.413Z" transform="translate(2954 312)"/>
    <path id="패스_32" data-name="패스 32" class="cls-2" d="M187.458,334.554v7.413H164.466v4.673H185.9v7.415h-21.43V358.8q7.572,0,14.2-.186t13.46-.854l.814,7.342q-3.19.372-6.861.592t-8.192.335q-4.521.109-10.047.148t-12.5.039V334.554ZM209.7,370.441v19.281H175.518v4.967h36.258v7.416H166.471V382.678h34.184v-4.9H166.1v-7.342Zm0-3.113h-9.346V353.314H189.608v-7.491h10.749V332.4H209.7Z" transform="translate(2954 312)"/>
    <rect id="사각형_4" data-name="사각형 4" class="cls-2" width="9.418" height="9.64" transform="translate(3192.768 674.194)"/>
    <path id="패스_33" data-name="패스 33" class="cls-2" d="M334.495,371.184v7.563H308.616v8.529h-9.342v-8.529H271.318v-7.563ZM307.581,337.3h20.465v7.491H277.772V337.3h20.39v-6.451h9.419Zm-18.018,55.836h37.446v7.638H280.216V382.9h9.347Zm13.346-24.619a54.684,54.684,0,0,1-8.712-.629,27.453,27.453,0,0,1-6.6-1.816,11.09,11.09,0,0,1-4.191-2.968,6.266,6.266,0,0,1-1.485-4.151v-2.372a6.322,6.322,0,0,1,1.485-4.116,10.955,10.955,0,0,1,4.191-3,27.59,27.59,0,0,1,6.6-1.817,60.645,60.645,0,0,1,17.424,0,27.683,27.683,0,0,1,6.6,1.817,10.99,10.99,0,0,1,4.192,3,6.353,6.353,0,0,1,1.484,4.116v2.372a6.3,6.3,0,0,1-1.484,4.151,11.126,11.126,0,0,1-4.192,2.968,27.545,27.545,0,0,1-6.6,1.816,54.684,54.684,0,0,1-8.712.629m0-14.385a29.99,29.99,0,0,0-8.826.965q-2.891.966-2.892,2.373v.592q0,1.41,2.892,2.375a40.932,40.932,0,0,0,17.653,0q2.891-.966,2.891-2.375v-.592q0-1.408-2.891-2.373a30,30,0,0,0-8.827-.965" transform="translate(2954 312)"/>
    <path id="패스_34" data-name="패스 34" class="cls-2" d="M386.182,370.22H353.628V336.482h32.554Zm-9.27-25.878H362.9v18.019h14.015Zm-4.149,48.272h35.591v8.009h-45.01V377.486h9.419Zm34.478-11.122H397.9V332.4h9.341Z" transform="translate(2954 312)"/>
    <path id="패스_35" data-name="패스 35" class="cls-2" d="M431.784,336.555h35.6v7.935H454.549v4.522a15.092,15.092,0,0,0,.186,2.447,6.889,6.889,0,0,0,.743,2.151,9.814,9.814,0,0,0,1.485,2.04,17.775,17.775,0,0,0,2.407,2.113q2.37,1.779,5.042,3.633t5.49,3.633l-4.97,6.6q-4.97-3.261-9.12-6.3-2.376-1.705-3.784-2.893a5.687,5.687,0,0,1-1.629-1.778h-.077a7.032,7.032,0,0,1-1.706,2.113,47.46,47.46,0,0,1-4.078,3.449q-2.37,1.928-4.856,3.817t-5.3,3.82l-5.49-6.822q3.558-2.373,6.713-4.821t5.525-4.524a12.912,12.912,0,0,0,3-3.817,10.6,10.6,0,0,0,1.077-4.858V344.49H431.784Zm32.628,66.886a38.683,38.683,0,0,1-8.528-.889,23.684,23.684,0,0,1-6.82-2.6A14.037,14.037,0,0,1,444.5,395.8a9.63,9.63,0,0,1-1.669-5.562v-3.261a9.639,9.639,0,0,1,1.669-5.562,14.059,14.059,0,0,1,4.562-4.153,23.683,23.683,0,0,1,6.82-2.6,41.338,41.338,0,0,1,17.054,0,23.682,23.682,0,0,1,6.825,2.6,14.01,14.01,0,0,1,4.557,4.153,9.634,9.634,0,0,1,1.671,5.562v3.261a9.624,9.624,0,0,1-1.671,5.562,13.988,13.988,0,0,1-4.557,4.153,23.683,23.683,0,0,1-6.825,2.6,38.658,38.658,0,0,1-8.526.889m0-22.024a22.118,22.118,0,0,0-4.672.481,16.693,16.693,0,0,0-3.928,1.336,9.144,9.144,0,0,0-2.748,2,3.643,3.643,0,0,0-1.036,2.483V389.5a3.646,3.646,0,0,0,1.036,2.483,9.093,9.093,0,0,0,2.748,2,16.56,16.56,0,0,0,3.928,1.336,22.916,22.916,0,0,0,9.341,0,16.689,16.689,0,0,0,3.934-1.336,9.113,9.113,0,0,0,2.742-2,3.638,3.638,0,0,0,1.037-2.483v-1.781a3.635,3.635,0,0,0-1.037-2.483,9.164,9.164,0,0,0-2.742-2,16.824,16.824,0,0,0-3.934-1.336,22.035,22.035,0,0,0-4.669-.481m12.011-24.1H465.376v-7.934h11.047V332.4h9.346v41.008h-9.346Z" transform="translate(2954 312)"/>
    <path id="패스_44" data-name="패스 44" class="cls-2" d="M569.8,371.845H506.737v-7.552H569.8ZM515.541,376.8h45.451v24.134H515.541Zm22.727-16.433a45.337,45.337,0,0,1-9.1-.851,25.671,25.671,0,0,1-7.144-2.48,13.217,13.217,0,0,1-4.663-4.034,9.446,9.446,0,0,1-1.668-5.515v-1.777a9.453,9.453,0,0,1,1.668-5.515,13.193,13.193,0,0,1,4.663-4.032,25.7,25.7,0,0,1,7.144-2.481,49.083,49.083,0,0,1,18.211,0,25.812,25.812,0,0,1,7.143,2.481,13.189,13.189,0,0,1,4.662,4.032,9.442,9.442,0,0,1,1.664,5.515v1.777a9.435,9.435,0,0,1-1.664,5.515,13.213,13.213,0,0,1-4.662,4.034,25.778,25.778,0,0,1-7.143,2.48,45.4,45.4,0,0,1-9.108.851m-13.473,33.089H551.74v-9.178H524.795Zm13.473-53.149a32.2,32.2,0,0,0-5.256.406,17.989,17.989,0,0,0-4.218,1.185,8.99,8.99,0,0,0-2.811,1.815,3.185,3.185,0,0,0-1.039,2.294v1.184a3.184,3.184,0,0,0,1.039,2.3,9.024,9.024,0,0,0,2.811,1.813,17.846,17.846,0,0,0,4.218,1.184,34.07,34.07,0,0,0,10.514,0,17.9,17.9,0,0,0,4.22-1.184,9.054,9.054,0,0,0,2.81-1.813,3.172,3.172,0,0,0,1.035-2.3V346.01a3.173,3.173,0,0,0-1.035-2.294,9.02,9.02,0,0,0-2.81-1.815,18.047,18.047,0,0,0-4.22-1.185,32.205,32.205,0,0,0-5.258-.406" transform="translate(2954 312)"/>
  </g>
</svg>
